Coordinates
version=1
nRows=4
nColumns=114
inDegrees=yes

Units are S.I. units (second, meters, Newtons, ...)
If the header above contains a line with 'inDegrees', this indicates whether rotational values are in degrees (yes) or radians (no).

endheader 
time	pelvis_tilt	pelvis_list	pelvis_rotation	pelvis_tx	pelvis_ty	pelvis_tz	hip_flexion_l	hip_adduction_l	hip_rotation_l	hip_flexion_r	hip_adduction_r	hip_rotation_r	knee_angle_l	knee_angle_r	ankle_angle_l	ankle_angle_r	subtalar_angle_l	subtalar_angle_r	mtp_angle_l	mtp_angle_r	lumbar_extension	lumbar_bending	lumbar_rotation	arm_flex_l	arm_add_l	arm_rot_l	arm_flex_r	arm_add_r	arm_rot_r	elbow_flex_l	elbow_flex_r	pro_sup_l	pro_sup_r	addbrev_l/activation	addlong_l/activation	addmagDist_l/activation	addmagIsch_l/activation	addmagMid_l/activation	addmagProx_l/activation	bflh_l/activation	bfsh_l/activation	edl_l/activation	ehl_l/activation	fdl_l/activation	fhl_l/activation	gaslat_l/activation	gasmed_l/activation	glmax1_l/activation	glmax2_l/activation	glmax3_l/activation	glmed1_l/activation	glmed2_l/activation	glmed3_l/activation	glmin1_l/activation	glmin2_l/activation	glmin3_l/activation	grac_l/activation	iliacus_l/activation	perbrev_l/activation	perlong_l/activation	piri_l/activation	psoas_l/activation	recfem_l/activation	sart_l/activation	semimem_l/activation	semiten_l/activation	soleus_l/activation	tfl_l/activation	tibant_l/activation	tibpost_l/activation	vasint_l/activation	vaslat_l/activation	vasmed_l/activation	addbrev_r/activation	addlong_r/activation	addmagDist_r/activation	addmagIsch_r/activation	addmagMid_r/activation	addmagProx_r/activation	bflh_r/activation	bfsh_r/activation	edl_r/activation	ehl_r/activation	fdl_r/activation	fhl_r/activation	gaslat_r/activation	gasmed_r/activation	glmax1_r/activation	glmax2_r/activation	glmax3_r/activation	glmed1_r/activation	glmed2_r/activation	glmed3_r/activation	glmin1_r/activation	glmin2_r/activation	glmin3_r/activation	grac_r/activation	iliacus_r/activation	perbrev_r/activation	perlong_r/activation	piri_r/activation	psoas_r/activation	recfem_r/activation	sart_r/activation	semimem_r/activation	semiten_r/activation	soleus_r/activation	tfl_r/activation	tibant_r/activation	tibpost_r/activation	vasint_r/activation	vaslat_r/activation	vasmed_r/activation	
          1.36000000	        -16.84792164	          9.28360602	        -34.01715220	          1.13857216	          0.78032408	          0.30868772	         59.36283799	        -11.74412236	         -1.46699018	         59.01612770	         -7.46428637	         -6.12660054	         71.76393951	         71.38434523	         32.72893609	         32.52239419	        -10.98742412	        -11.43274632	         -3.40964894	         -4.90391159	        -25.93571053	          2.83103318	          2.91248139	          6.03886364	        -15.33733104	         10.31240471	          3.16939557	        -20.67251387	          5.96939925	         33.83305183	         34.84787088	         69.09671401	         69.89337389	          0.01441706	          0.01440205	          0.11356600	          0.13926492	          0.06187185	          0.01770558	          0.17674738	          0.01725595	          0.01782781	          0.01961036	          0.01478339	          0.03753747	          0.08565755	          0.03904084	          0.10209558	          0.20958062	          0.22838126	          0.01437886	          0.01437752	          0.01443740	          0.01434744	          0.01408595	          0.01384852	          0.01479796	          0.01681229	          0.04727260	          0.14695343	          0.06916107	          0.02486655	          0.19032827	          0.08674547	          0.15092677	          0.01729623	          0.26435506	          0.02811889	          0.03300213	          0.05796995	          0.10743991	          0.16832009	          0.13098944	          0.01036359	          0.01025885	          0.06990876	          0.07510282	          0.02235995	          0.01709649	          0.20165054	          0.08083305	          0.15177624	          0.16546040	          0.01007216	          0.05746668	          0.08689450	          0.25549067	          0.07187251	          0.19282622	          0.23678782	          0.01201224	          0.01193470	          0.01806819	          0.01202336	          0.01209752	          0.01212812	          0.01444205	          0.01668106	          0.09432920	          0.10366478	          0.09319457	          0.01726434	          0.11649339	          0.16559029	          0.14475665	          0.56623570	          0.16402246	          0.01529340	          0.17990792	          0.02840419	          0.14496399	          0.22767924	          0.16681619	
          1.37000000	        -17.07370587	          9.32588083	        -33.95219289	          1.13784264	          0.77796429	          0.30827179	         59.86961519	        -11.90110666	         -1.40803510	         59.56581795	         -7.30818519	         -6.07040687	         72.31522651	         72.06663023	         32.62988103	         32.41186846	        -10.96050880	        -12.18892457	         -3.55818511	         -4.95068459	        -26.20056999	          2.80393901	          2.87990195	          6.34345046	        -15.40956054	         10.17270717	          3.25861142	        -20.30763753	          5.56009118	         34.02228224	         35.25951917	         68.17617596	         69.00334492	          0.01201784	          0.01200408	          0.09464156	          0.11605737	          0.05156311	          0.01476320	          0.14729479	          0.01439242	          0.10594052	          0.08826799	          0.01238299	          0.03128393	          0.07138358	          0.03253419	          0.08509602	          0.17467544	          0.19032248	          0.01198571	          0.01198778	          0.01204333	          0.01196522	          0.01175346	          0.01156490	          0.01233720	          0.01401653	          0.05402488	          0.14900405	          0.05763625	          0.02072504	          0.15861357	          0.07229676	          0.12577395	          0.01441722	          0.68517684	          0.02350057	          0.17353418	          0.04831786	          0.29797170	          0.30070106	          0.33573924	          0.01205621	          0.01202000	          0.05839040	          0.09437394	          0.01867563	          0.01440487	          0.16805629	          0.06736399	          0.16820071	          0.19399672	          0.05339309	          0.04789689	          0.07241415	          0.21291450	          0.08677702	          0.32399753	          0.21369243	          0.01003044	          0.01005657	          0.01507580	          0.01009191	          0.01011425	          0.01014082	          0.01204190	          0.01390654	          0.07861853	          0.08638937	          0.11443632	          0.01439150	          0.09931596	          0.13799544	          0.12063290	          0.47186588	          0.13668587	          0.01279129	          0.28140690	          0.06877392	          0.43138043	          0.22347250	          0.47902240	
          1.38000000	        -17.16377439	          9.28873078	        -33.88655554	          1.13751423	          0.77564273	          0.30812682	         60.15650394	        -12.01298152	         -1.33833564	         59.91054628	         -7.16730791	         -5.97376357	         72.56001158	         72.48958387	         32.43442001	         32.28054824	        -10.88195143	        -12.72594221	         -3.81841619	         -5.01039395	        -26.55256403	          2.76655254	          2.82849405	          6.56321631	        -15.47878770	         10.11159712	          3.22107999	        -19.91309661	          5.19789512	         34.04001046	         35.49539708	         67.66777803	         68.39059135	          0.01002411	          0.01001095	          0.07887659	          0.09673376	          0.04297653	          0.01232029	          0.12275241	          0.01200471	          0.08828730	          0.07355984	          0.01053373	          0.03822743	          0.07742917	          0.03443987	          0.07100844	          0.23327751	          0.15862403	          0.01000933	          0.01002167	          0.01006898	          0.01002431	          0.01003310	          0.01005736	          0.01029116	          0.01168784	          0.05777395	          0.12436868	          0.04849260	          0.01727327	          0.13217990	          0.06025179	          0.10481460	          0.01202021	          0.57100252	          0.01964906	          0.14461415	          0.04028825	          0.25041642	          0.25288740	          0.27981998	          0.01005485	          0.01002373	          0.04866248	          0.07864899	          0.01556694	          0.01201360	          0.27658555	          0.05617044	          0.14017128	          0.16166619	          0.04460897	          0.04156958	          0.09231384	          0.17927125	          0.07233315	          0.27000287	          0.17807994	          0.01001063	          0.01002846	          0.01259220	          0.01002614	          0.01004389	          0.01010166	          0.01004732	          0.01176693	          0.16756068	          0.07200689	          0.11801703	          0.01201387	          0.08276374	          0.11508252	          0.15319471	          0.75243111	          0.38153621	          0.02152948	          0.23450779	          0.05732952	          0.35948395	          0.18622715	          0.39918554	
          1.39000000	        -17.19865690	          9.21692006	        -33.82135237	          1.13736444	          0.77360924	          0.30813090	         60.30879490	        -12.08962486	         -1.24338709	         60.10869922	         -7.03516564	         -5.79533428	         72.78154343	         73.16923478	         32.30951327	         32.38818321	        -10.83046043	        -13.10064584	         -4.30759072	         -5.18540435	        -26.96016006	          2.71981828	          2.77868327	          6.70671529	        -15.53701935	         10.01959865	          3.22540734	        -19.53296995	          5.00341276	         33.98585093	         35.62346308	         67.49484825	         68.15916176	          0.01202933	          0.01200471	          0.21035955	          0.37837881	          0.12672501	          0.01438938	          0.16659148	          0.01002150	          0.07360437	          0.12175258	          0.02381122	          0.03185771	          0.06452496	          0.02869997	          0.15729009	          0.55058760	          0.51529783	          0.01003737	          0.01009807	          0.01072707	          0.01011341	          0.01010455	          0.01014485	          0.01009242	          0.01001323	          0.04815990	          0.10364841	          0.04041232	          0.01439699	          0.11015405	          0.05021323	          0.08734914	          0.01003846	          0.47583824	          0.01644905	          0.12051581	          0.03358961	          0.20868597	          0.21074087	          0.23318716	          0.01002030	          0.01001744	          0.04057339	          0.09051022	          0.01298734	          0.01003967	          0.23048904	          0.04683968	          0.11681321	          0.13473942	          0.04596987	          0.03464471	          0.07692869	          0.14939315	          0.17414604	          0.22501601	          0.14840853	          0.02489457	          0.04790712	          0.10031020	          0.02485551	          0.02490735	          0.03825421	          0.06953574	          0.01002026	          0.16257526	          0.06000692	          0.09835015	          0.01002021	          0.24971200	          0.09591116	          0.12766265	          0.62702742	          0.31795032	          0.01804117	          0.19542472	          0.07017146	          0.54934447	          0.15519081	          0.79969057	
